# xmcd CD database file
#
# Track frame offsets:
#	150
#	14239
#	33802
#	49756
#	59652
#	79166
#	94132
#	110923
#	131865
#	154701
#	181728
#	197561
#	223889
#	244671
#	262762
#	289219
#	311732
#
# Disc length: 4531 seconds
#
# Revision: 0
# Processed by: cddbd v1.5.2PL0 Copyright (c) Steve Scherf et al.
# Submitted via: CDex 1.70beta2
#
DISCID=fc11b111
DTITLE=Sueddeutsche Zeitung - Jazz - Fakes and Covers
DYEAR=2011
DGENRE=Jazz
TTITLE0=David Benoit: Linus and Lucy
TTITLE1=Steve Evans Quartet: Clap Hands 
TTITLE2=Robin McKelle: Abracadabra 
TTITLE3=Stefano Bollani: Pierre et le Loup 
TTITLE4=Jacky Terrasson: Que reste – T‘il De Nos amours? 
TTITLE5=Ella Fitzgerald And Her Orchestra: Sunshine Of Your Love 
TTITLE6=Hayseed Dixie: Bohemian Rhapsody 
TTITLE7=Cassandra Wilson: Fragile
TTITLE8=Sidsel Endresen and Bugge Wesseltoft: Fifty Ways To Leave Your Lover 
TTITLE9=Wayne Shorter: Bachianas Brasileiras No.5
TTITLE10=Michael Schiefel and Carsten Daerr: Boys Don't Cry
TTITLE11=Biréli Lagrène: We Are The Champions
TTITLE12=Brad Mehldau: Martha My Dear 
TTITLE13=Chinaza: Jealous Guy
TTITLE14=Franco Ambrosetti: Volare (Nel Blu Dipinto Di Blu)
TTITLE15=Barney Kessel: Free As A Bird 
TTITLE16=Radio.string.quartet: A Lotus On Irish Stream
EXTD=YEAR: 2011
EXTT0=
EXTT1=
EXTT2=
EXTT3=
EXTT4=
EXTT5=
EXTT6=
EXTT7=
EXTT8=
EXTT9=
EXTT10=
EXTT11=
EXTT12=
EXTT13=
EXTT14=
EXTT15=
EXTT16=
PLAYORDER=
